<?xml version="1.0" encoding="UTF-8"?>
<svg id="Layer_1" data-name="Layer 1" xmlns="http://www.w3.org/2000/svg" viewBox="0 0 820.75 500">
  <defs>
    <style>
      .cls-1 {
        fill: #121212;
      }
    </style>
  </defs>
  <g>
    <path class="cls-1" d="M645.78,318.8v-66.35h13.46v55.13h31.18v11.23h-44.64Z"/>
    <path class="cls-1" d="M693.3,318.8l23.11-66.35h13.92l23.39,66.35h-14.01l-4.45-14.11h-23.94l-4.36,14.11h-13.64ZM720.39,275.27l-5.94,19.12h17.54l-5.94-19.12-2.69-10.21h-.19c-1.11,4.45-2.04,7.86-2.78,10.21Z"/>
    <path class="cls-1" d="M759.28,318.8v-66.35h29.7c7.11,0,12.47,1.61,16.06,4.83,3.53,3.16,5.29,7.3,5.29,12.44,0,6.5-3.47,10.92-10.39,13.27v.28c3.71,1.11,6.7,3.12,8.96,6.03,2.26,2.91,3.39,6.37,3.39,10.39,0,5.88-1.95,10.49-5.85,13.83-4.02,3.53-9.59,5.29-16.7,5.29h-30.44ZM772.74,279.17h14.57c2.97,0,5.35-.7,7.15-2.09,1.79-1.39,2.69-3.36,2.69-5.89s-.85-4.39-2.55-5.75c-1.7-1.36-4.04-2.04-7.01-2.04h-14.85v15.78ZM772.74,289.1v18.56h15.5c3.22,0,5.75-.82,7.61-2.46s2.78-3.82,2.78-6.54c0-3.03-1.01-5.38-3.02-7.05-2.01-1.67-4.59-2.51-7.75-2.51h-15.13Z"/>
  </g>
  <g>
    <path class="cls-1" d="M106.52,287.69h42.19l-11.62,10.19,16.72,41.07,1.91,5.41,14.17-34.23-4.14-9.55-10.51-12.9h42.03l-11.46,10.19,16.56,41.07,1.91,3.5,17.19-44.57-11.46-10.19h28.34l-9.39,9.87-29.45,71.64h-3.5l-22.61-51.26-22.61,51.26h-3.5l-30.25-68.61-10.51-12.9Z"/>
    <path class="cls-1" d="M267.31,367.6c-22.61,0-34.55-18.31-34.55-37.41,0-20.54,13.85-44.41,43.46-44.41,22.61,0,34.55,18.31,34.55,37.41,0,20.54-13.85,44.42-43.46,44.42ZM252.98,315.71c0,24.83,9.07,45.85,23.08,45.85,11.78,0,14.81-15.6,14.81-23.88,0-24.83-9.23-45.85-23.24-45.85-13.21,0-14.65,14.33-14.65,23.88Z"/>
    <path class="cls-1" d="M364.25,365.69l11.46-13.69v-35.34c0-12.26-1.75-20.06-14.01-20.06-5.89,0-11.94,2.55-17.03,9.39v46.01l11.46,13.69h-42.66l12.1-13.69v-42.98l-10.83-12.26,29.93-10.67v14.49c6.37-9.87,16.72-14.8,26.27-14.8,16.24,0,23.88,10.51,23.88,25.47v40.75l12.1,13.69h-42.66Z"/>
    <path class="cls-1" d="M464.7,351.53c-4.78,8.28-12.1,15.76-24.36,15.76-20.85,0-31.04-18.31-31.04-37.41,0-20.54,13.05-42.19,42.03-42.19h13.37v-13.69l-10.82-12.26,29.93-9.07v101.88l11.78,11.14-30.88,1.43v-15.6ZM464.7,302.97c-4.78-5.09-11.3-9.71-19.58-9.71-14.01,0-16.87,12.58-16.87,22.13,0,24.83,10.99,34.39,24.52,34.39,5.57,0,8.91-1.59,11.94-3.98v-42.82Z"/>
    <path class="cls-1" d="M565.79,320.8h-51.1c1.75,20.54,12.74,29.13,25.15,29.13,10.83,0,20.38-5.41,22.76-12.1l2.39.96c-5.73,14.49-17.03,29.13-35.98,29.13-20.85,0-32.64-18.63-32.64-37.73,0-20.54,12.74-44.1,38.68-44.1,18.94,0,30.57,12.74,30.72,34.23l.16.32h-.16v.16ZM545.25,314.59c0-17.03-6.84-23.72-13.85-23.72-12.1,0-17.03,14.49-17.03,24.04v1.11h30.88v-1.43Z"/>
    <path class="cls-1" d="M633.92,315.86c-7-16.72-16.4-22.29-23.72-22.29-10.98,0-10.98,7.96-10.98,24.2v34.23l14.8,13.69h-45.69l11.78-13.69v-52.06l-10.83-12.26h65.91v28.18h-1.27Z"/>
  </g>
  <g>
    <path class="cls-1" d="M429.62,232.54l-26.85,2.7c-2.04.12-3.98-.03-5.91-.68-7-2.35-8.65-10.3-12.74-15.48-.7-.2-2.39.66-2.07,1.47,3.59,7.13,9.98,13.13,6.15,21.71l-16.73,23.69c-.34.38-1.18.37-1.33-.17l-15.68-22.09c-1.4-2.3-2.01-5.01-1.92-7.71.2-6.09,5.29-10.4,7.17-15.83-.19-.73-1.93-1.56-2.52-.81-4.9,7.86-7.09,16.55-18.29,15.9-7.39-.43-14.86-1.62-22.2-2.39-.93-.1-4.36.37-4.62-.79l12.03-26.31c2.06-4,6.65-6.42,11.16-5.87,6.6.81,20.29,14.74,28.01,17.88,15.69,6.38,27.5-9.93,39.75-16.77,5.74-2.66,11.64-.5,14.73,4.87,4.31,7.48,7.03,17.04,11.32,24.68l.55,2Z"/>
    <path class="cls-1" d="M371.4,130.88l15.64,22.01c5.83,9.56-1.32,15.68-5.08,23.98.09.39,1.89,1.34,2.38.95,5.36-8.23,6.71-16.36,18.44-16.07l26.85,2.7c.05.32-.04.61-.14.91-1.47,4.75-5.56,12.58-7.82,17.38-1.22,2.58-2.51,5.68-3.89,8.11-3.65,6.43-10.02,7.84-16.32,4.02-9.63-5.84-20.11-17.94-31.98-17.23-8.82.53-19.22,10.49-26.56,15.43-1.91,1.28-4.77,3.52-7.02,3.78-7.57.86-10.3-2.85-13.3-8.89-3.07-6.17-7.51-15.08-9.78-21.41-.25-.68-.55-1.33-.46-2.09l27.14-2.7c7.17-.17,10.1,2.95,13.59,8.6.9,1.46,3.13,6.45,4.11,7.3.67.58,2.33-.08,2.51-.81.24-.96-6.09-10.5-6.73-12.97-1.66-6.38,1.23-10.11,4.54-14.99,3.62-5.32,8.03-11.83,11.99-16.81.37-.46,1.25-1.56,1.9-1.18Z"/>
    <circle class="cls-1" cx="370.89" cy="198.48" r="12.29"/>
  </g>
  <g>
    <path class="cls-1" d="M8.48,365.8l29.65-80.6h11.39l29.76,80.6h-11.05l-8.57-24.57H27.53l-8.68,24.57h-10.37ZM40.04,305.94l-9.58,27.05h26.38l-9.24-27.05-3.61-11.38h-.23c-1.43,4.51-2.67,8.3-3.72,11.38Z"/>
    <path class="cls-1" d="M86.6,296.47v-11.27h9.13v11.27h-9.13ZM86.6,365.8v-58.28h9.13v58.28h-9.13Z"/>
  </g>
</svg>