<?xml version="1.0" encoding="UTF-8"?>
<svg id="Layer_1" data-name="Layer 1" xmlns="http://www.w3.org/2000/svg" viewBox="0 0 500 500">
  <defs>
    <style>
      .cls-1 {
        fill: #101010;
      }

      .cls-2 {
        fill: #f7f7f7;
      }
    </style>
  </defs>
  <circle class="cls-2" cx="250.33" cy="250.22" r="245.47"/>
  <g>
    <path class="cls-1" d="M399.7,336.73l-68.24,6.86c-5.18.31-10.12-.08-15.03-1.73-17.78-5.97-21.98-26.19-32.38-39.35-1.77-.51-6.08,1.68-5.26,3.73,9.12,18.12,25.36,33.37,15.63,55.19l-42.53,60.21c-.85.95-2.99.95-3.38-.44l-39.87-56.16c-3.57-5.84-5.11-12.73-4.89-19.59.51-15.47,13.44-26.42,18.24-40.22-.47-1.86-4.9-3.97-6.39-2.06-12.45,19.97-18.01,42.06-46.49,40.41-18.78-1.08-37.76-4.11-56.43-6.08-2.37-.25-11.09.93-11.74-2l30.58-66.87c5.23-10.16,16.9-16.33,28.35-14.93,16.79,2.05,51.58,37.47,71.2,45.44,39.89,16.21,69.89-25.24,101.03-42.61,14.58-6.77,29.58-1.27,37.44,12.38,10.95,19.02,17.88,43.31,28.76,62.73l1.4,5.08Z"/>
    <path class="cls-1" d="M251.72,78.33l39.75,55.93c14.82,24.31-3.36,39.85-12.92,60.95.23,1,4.79,3.4,6.05,2.41,13.61-20.91,17.05-41.6,46.87-40.83l68.24,6.86c.13.82-.11,1.54-.35,2.31-3.73,12.07-14.12,31.98-19.87,44.18-3.09,6.57-6.37,14.44-9.88,20.61-9.29,16.34-25.48,19.92-41.49,10.21-24.47-14.83-51.12-45.61-81.29-43.81-22.42,1.34-48.84,26.66-67.5,39.23-4.85,3.27-12.12,8.95-17.85,9.6-19.23,2.18-26.18-7.25-33.82-22.6-7.81-15.69-19.09-38.34-24.87-54.43-.62-1.74-1.4-3.39-1.16-5.32l69-6.86c18.22-.43,25.67,7.5,34.55,21.86,2.3,3.72,7.94,16.39,10.45,18.55,1.7,1.47,5.91-.21,6.37-2.06.61-2.45-15.47-26.69-17.11-32.98-4.23-16.22,3.12-25.7,11.55-38.1,9.2-13.52,20.42-30.07,30.47-42.72.93-1.17,3.17-3.97,4.82-3.01Z"/>
    <ellipse class="cls-1" cx="250.41" cy="250.16" rx="31.24" ry="31.24"/>
  </g>
</svg>