<?xml version="1.0" encoding="UTF-8"?>
<svg id="Layer_1" data-name="Layer 1" xmlns="http://www.w3.org/2000/svg" viewBox="0 0 500 500">
  <defs>
    <style>
      .cls-1 {
        fill: #fff;
      }

      .cls-2 {
        fill: #101010;
      }
    </style>
  </defs>
  <circle class="cls-2" cx="250.33" cy="250.04" r="245.3"/>
  <g>
    <path class="cls-1" d="M399.59,336.49l-68.19,6.86c-5.17.31-10.11-.08-15.02-1.72-17.77-5.97-21.96-26.17-32.36-39.32-1.77-.51-6.08,1.68-5.26,3.73,9.11,18.1,25.34,33.34,15.62,55.15l-42.5,60.17c-.85.95-2.99.95-3.38-.44l-39.84-56.12c-3.57-5.84-5.11-12.72-4.88-19.57.51-15.46,13.43-26.4,18.22-40.2-.47-1.86-4.89-3.97-6.39-2.06-12.44,19.96-18,42.03-46.45,40.39-18.76-1.08-37.74-4.11-56.39-6.08-2.37-.25-11.08.93-11.73-1.99l30.56-66.83c5.23-10.15,16.89-16.32,28.33-14.92,16.77,2.04,51.54,37.44,71.15,45.41,39.86,16.2,69.84-25.22,100.96-42.58,14.57-6.77,29.56-1.27,37.42,12.37,10.94,19,17.87,43.28,28.74,62.69l1.4,5.08Z"/>
    <path class="cls-1" d="M251.71,78.27l39.72,55.89c14.81,24.29-3.35,39.82-12.91,60.9.23,1,4.79,3.4,6.05,2.41,13.6-20.9,17.04-41.57,46.83-40.81l68.19,6.86c.13.82-.11,1.54-.35,2.31-3.73,12.06-14.11,31.95-19.85,44.15-3.09,6.56-6.37,14.43-9.88,20.6-9.28,16.33-25.46,19.9-41.46,10.2-24.45-14.82-51.09-45.58-81.23-43.77-22.41,1.34-48.81,26.64-67.46,39.2-4.84,3.26-12.11,8.95-17.83,9.59-19.22,2.18-26.16-7.25-33.79-22.59-7.8-15.68-19.08-38.31-24.85-54.39-.62-1.74-1.4-3.39-1.16-5.31l68.95-6.85c18.21-.43,25.65,7.49,34.52,21.84,2.3,3.71,7.94,16.37,10.44,18.54,1.7,1.47,5.91-.21,6.37-2.06.61-2.45-15.46-26.67-17.09-32.95-4.22-16.2,3.11-25.69,11.54-38.07,9.19-13.51,20.4-30.05,30.45-42.69.93-1.17,3.17-3.96,4.81-3.01Z"/>
    <ellipse class="cls-1" cx="250.41" cy="249.98" rx="31.21" ry="31.22"/>
  </g>
</svg>